<svg width="29" height="19" viewBox="0 0 29 19" fill="none" xmlns="http://www.w3.org/2000/svg">
<path d="M27.1318 10.6464C27.7393 10.6464 28.2318 10.1539 28.2318 9.54636C28.2318 8.93885 27.7393 8.44636 27.1318 8.44636L27.1318 10.6464ZM1.47918 8.44636C0.871668 8.44636 0.379181 8.93885 0.379181 9.54636C0.379181 10.1539 0.871668 10.6464 1.47918 10.6464L1.47918 8.44636ZM7.118 18.3441C7.54949 18.7718 8.24597 18.7686 8.67362 18.3372C9.10128 17.9057 9.09817 17.2092 8.66668 16.7815L7.118 18.3441ZM5.06579 14.7614L5.84013 13.9801L5.06579 14.7614ZM5.06579 4.33135L5.84013 5.11263L5.06579 4.33135ZM8.66668 2.31119C9.09817 1.88353 9.10128 1.18706 8.67362 0.755567C8.24597 0.324078 7.54949 0.32097 7.11801 0.748626L8.66668 2.31119ZM1.51107 10.0487L0.419897 10.1878L0.419897 10.1878L1.51107 10.0487ZM1.51107 9.044L0.419898 8.90491L0.419898 8.90491L1.51107 9.044ZM27.1318 8.44636L1.47918 8.44636L1.47918 10.6464L27.1318 10.6464L27.1318 8.44636ZM8.66668 16.7815L5.84013 13.9801L4.29145 15.5427L7.118 18.3441L8.66668 16.7815ZM5.84013 5.11263L8.66668 2.31119L7.11801 0.748626L4.29145 3.55007L5.84013 5.11263ZM5.84013 13.9801C4.6947 12.8448 3.90282 12.0576 3.36587 11.389C2.84286 10.7378 2.65283 10.3066 2.60224 9.90964L0.419897 10.1878C0.542843 11.1524 1.00312 11.9604 1.65055 12.7666C2.28405 13.5554 3.18276 14.4438 4.29145 15.5427L5.84013 13.9801ZM4.29145 3.55007C3.18276 4.64891 2.28405 5.5373 1.65055 6.32612C1.00312 7.13229 0.542845 7.94034 0.419898 8.90491L2.60224 9.18308C2.65283 8.78615 2.84286 8.35493 3.36587 7.70368C3.90282 7.03507 4.6947 6.24789 5.84013 5.11263L4.29145 3.55007ZM2.60224 9.90964C2.57149 9.66841 2.57149 9.42432 2.60224 9.18308L0.419898 8.90491C0.365609 9.33084 0.365607 9.76187 0.419897 10.1878L2.60224 9.90964Z" fill="#373737"/>
</svg>
