<svg width="29" height="19" viewBox="0 0 29 19" fill="none" xmlns="http://www.w3.org/2000/svg">
<path d="M1.95117 8.20642C1.34366 8.20642 0.851171 8.69891 0.851172 9.30642C0.851172 9.91394 1.34366 10.4064 1.95117 10.4064L1.95117 8.20642ZM27.6038 10.4064C28.2113 10.4064 28.7038 9.91393 28.7038 9.30642C28.7038 8.69891 28.2113 8.20642 27.6038 8.20642L27.6038 10.4064ZM21.965 0.508686C21.5335 0.0810301 20.837 0.0841375 20.4094 0.515627C19.9817 0.947116 19.9848 1.64359 20.4163 2.07125L21.965 0.508686ZM24.0172 4.09141L23.2429 4.87269L24.0172 4.09141ZM24.0172 14.5214L23.2429 13.7402L24.0172 14.5214ZM20.4163 16.5416C19.9848 16.9693 19.9817 17.6657 20.4094 18.0972C20.837 18.5287 21.5335 18.5318 21.965 18.1042L20.4163 16.5416ZM27.5719 8.80406L28.6631 8.66497L28.6631 8.66497L27.5719 8.80406ZM27.5719 9.80878L28.6631 9.94787L28.6631 9.94787L27.5719 9.80878ZM1.95117 10.4064L27.6038 10.4064L27.6038 8.20642L1.95117 8.20642L1.95117 10.4064ZM20.4163 2.07125L23.2429 4.87269L24.7916 3.31013L21.965 0.508686L20.4163 2.07125ZM23.2429 13.7402L20.4163 16.5416L21.965 18.1042L24.7916 15.3027L23.2429 13.7402ZM23.2429 4.87269C24.3883 6.00795 25.1802 6.79513 25.7171 7.46374C26.2401 8.11499 26.4302 8.54621 26.4808 8.94314L28.6631 8.66497C28.5402 7.7004 28.0799 6.89235 27.4325 6.08617C26.799 5.29736 25.9002 4.40897 24.7916 3.31013L23.2429 4.87269ZM24.7916 15.3027C25.9002 14.2039 26.799 13.3155 27.4325 12.5267C28.0799 11.7205 28.5402 10.9124 28.6631 9.94787L26.4808 9.6697C26.4302 10.0666 26.2401 10.4979 25.7171 11.1491C25.1802 11.8177 24.3883 12.6049 23.2429 13.7402L24.7916 15.3027ZM26.4808 8.94314C26.5115 9.18437 26.5115 9.42846 26.4808 9.6697L28.6631 9.94787C28.7174 9.52194 28.7174 9.09091 28.6631 8.66497L26.4808 8.94314Z" fill="black"/>
</svg>
