<svg width="20" height="18" viewBox="0 0 20 18" fill="none" xmlns="http://www.w3.org/2000/svg">
<path d="M1.13895 3.87535C0.833496 5.012 0.833496 6.58008 0.833496 9C0.833496 12.4373 0.833496 14.1559 1.70883 15.3607C1.99153 15.7498 2.33371 16.092 2.72281 16.3747C3.92761 17.25 5.64624 17.25 9.0835 17.25H10.9168C14.3541 17.25 16.0727 17.25 17.2775 16.3747C17.6666 16.092 18.0088 15.7498 18.2915 15.3607C19.1668 14.1559 19.1668 12.4373 19.1668 9C19.1668 6.57201 19.1668 5.00156 18.8583 3.864L16.9308 5.79154C15.4345 7.2878 14.262 8.46038 13.2241 9.25227C12.1617 10.0628 11.16 10.539 10 10.539C8.84004 10.539 7.83836 10.0628 6.77601 9.25227C5.73811 8.46038 4.56553 7.28779 3.06928 5.79152L1.27703 3.99927L1.13895 3.87535Z" fill="white"/>
<path d="M1.75016 2.58333L1.84994 2.6659L2.22305 3.00074L4.00436 4.78206C5.54588 6.32358 6.65415 7.42978 7.61006 8.15911C8.5501 8.87634 9.26156 9.16402 10 9.16402C10.7385 9.16402 11.45 8.87634 12.39 8.15911C13.3459 7.42978 14.4542 6.32358 15.9957 4.78206L18.1113 2.66648L18.2264 2.55197C17.9437 2.16287 17.6666 1.90804 17.2775 1.62534C16.0727 0.75 14.3541 0.75 10.9168 0.75H9.0835C5.64624 0.75 3.92761 0.75 2.72281 1.62534C2.33371 1.90804 2.03286 2.19423 1.75016 2.58333Z" fill="white"/>
</svg>
