<svg width="52" height="50" viewBox="0 0 52 50" fill="none" xmlns="http://www.w3.org/2000/svg">
<path d="M33.4633 2.6416L27.9832 8.12168C27.1578 8.94707 26.285 10.0322 25.9998 11.0834C25.7147 10.0322 25.247 8.9471 24.4216 8.12171L18.9416 2.64164C16.4194 0.1195 12.3302 0.1195 9.80811 2.64164C7.5331 4.91664 7.40193 8.55847 9.23111 11.0833L25.9998 11.0834L6.62484 11.0834C3.058 11.0834 0.166504 13.9749 0.166504 17.5417C0.166504 19.3019 0.87067 20.8976 2.01267 22.0625H25.9873L25.9998 22.0625L26.0123 22.0625H49.987C51.129 20.8976 51.8332 19.3019 51.8332 17.5417C51.8332 13.9749 48.9417 11.0834 45.3748 11.0834L42.5968 11.0834L43.2655 11.0833C45.0947 8.55847 44.8717 4.91661 42.5967 2.6416C40.0746 0.119466 35.9854 0.119466 33.4633 2.6416Z" fill="#232222"/>
<path d="M2.70088 26.1587L2.69288 25.8457H24.0623V49.7415H22.1248C16.1064 49.7415 13.0972 49.7415 10.7235 48.7115C7.55858 47.3381 5.04404 44.7038 3.73307 41.3882C2.74993 38.9016 2.74993 35.7479 2.74993 29.444C2.74993 28.0622 2.72323 27.026 2.70088 26.1587Z" fill="#232222"/>
<path d="M41.2762 48.7115C38.9025 49.7415 35.8932 49.7415 29.8749 49.7415H27.9373V25.8457H49.2352C49.2499 26.7761 49.2499 27.8921 49.2499 29.4439C49.2499 35.7489 49.2499 38.9014 48.2666 41.3882C46.9557 44.7038 44.4411 47.3381 41.2762 48.7115Z" fill="#232222"/>
</svg>
